HIERARCHY
ROOT CG
{
	OFFSET 0.000000 0.000000 27.772259
	CHANNELS 6 Xposition Yposition Zposition Xrotation Yrotation Zrotation
	JOINT Pelvis
	{
		OFFSET 0.000000 0.000000 0.000000
		CHANNELS 3 Xrotation Yrotation Zrotation
		JOINT Spine
		{
			OFFSET -0.000017 -10.490843 -0.495483
			CHANNELS 3 Xrotation Yrotation Zrotation
			JOINT Spine1
			{
				OFFSET -0.000010 -22.678980 0.018061
				CHANNELS 3 Xrotation Yrotation Zrotation
				JOINT Spine2
				{
					OFFSET -0.000010 -22.678967 0.018061
					CHANNELS 3 Xrotation Yrotation Zrotation
					JOINT Spine3
					{
						OFFSET -0.000010 -22.678982 0.018059
						CHANNELS 3 Xrotation Yrotation Zrotation
						JOINT Neck
						{
							OFFSET -0.000012 -22.678986 -1.289251
							CHANNELS 3 Xrotation Yrotation Zrotation
							JOINT Neck1
							{
								OFFSET -0.000007 -16.255905 0.012947
								CHANNELS 3 Xrotation Yrotation Zrotation
								JOINT Head
								{
									OFFSET -0.000005 -10.784607 -0.287502
									CHANNELS 3 Xrotation Yrotation Zrotation
									JOINT Jaw01
									{
										OFFSET 0.000031 7.782959 5.073944
										CHANNELS 3 Xrotation Yrotation Zrotation
										JOINT Jaw02
										{
											OFFSET 0.000004 -34.927139 -18.883980
											CHANNELS 3 Xrotation Yrotation Zrotation
											End Site
											{
												OFFSET -0.000170 8.372803 -38.812450
											}
										}
									}
									JOINT Nose
									{
										OFFSET -0.000002 -25.700912 7.222265
										CHANNELS 3 Xrotation Yrotation Zrotation
										End Site
										{
											OFFSET -0.000090 0.641281 -21.715439
										}
									}
									JOINT L_EyeSocket
									{
										OFFSET 7.352326 -19.832718 14.164183
										CHANNELS 3 Xrotation Yrotation Zrotation
										JOINT L_Eye
										{
											OFFSET -0.000868 -0.001053 0.016003
											CHANNELS 3 Xrotation Yrotation Zrotation
											End Site
											{
												OFFSET -0.001505 -0.001846 0.027969
											}
										}
										JOINT L_Eyelid_Top
										{
											OFFSET -0.001004 -0.002625 0.032516
											CHANNELS 3 Xrotation Yrotation Zrotation
											End Site
											{
												OFFSET -0.013218 0.005753 0.024086
											}
										}
										JOINT L_Eyelid_Bottom
										{
											OFFSET -0.001194 -0.002777 0.035381
											CHANNELS 3 Xrotation Yrotation Zrotation
											End Site
											{
												OFFSET -0.010032 0.008636 -0.024754
											}
										}
									}
									JOINT R_EyeSocket
									{
										OFFSET -7.352252 -19.832748 14.164206
										CHANNELS 3 Xrotation Yrotation Zrotation
										JOINT R_Eye
										{
											OFFSET 0.000875 -0.001068 0.015991
											CHANNELS 3 Xrotation Yrotation Zrotation
											End Site
											{
												OFFSET 0.001505 -0.001846 0.027962
											}
										}
										JOINT R_Eyelid_Top
										{
											OFFSET 0.001021 -0.002625 0.032516
											CHANNELS 3 Xrotation Yrotation Zrotation
											End Site
											{
												OFFSET 0.013214 0.005753 0.024078
											}
										}
										JOINT R_Eyelid_Bottom
										{
											OFFSET 0.001170 -0.002762 0.035366
											CHANNELS 3 Xrotation Yrotation Zrotation
											End Site
											{
												OFFSET 0.010029 0.008636 -0.024746
											}
										}
									}
								}
								JOINT Neck_Fat
								{
									OFFSET 0.000044 -9.595100 -17.491512
									CHANNELS 3 Xrotation Yrotation Zrotation
									End Site
									{
										OFFSET -0.000036 15.369423 -0.000007
									}
								}
							}
						}
						JOINT L_Clavicle
						{
							OFFSET 4.567107 -11.666092 -3.750029
							CHANNELS 3 Xrotation Yrotation Zrotation
							JOINT L_UpperArm
							{
								OFFSET 20.725666 -0.000053 -0.000032
								CHANNELS 3 Xrotation Yrotation Zrotation
								JOINT L_Forearm
								{
									OFFSET 5.265112 -0.585754 -20.155697
									CHANNELS 3 Xrotation Yrotation Zrotation
									JOINT L_Hand
									{
										OFFSET 2.653017 -10.877708 -16.383667
										CHANNELS 3 Xrotation Yrotation Zrotation
										JOINT L_Finger0
										{
											OFFSET -4.206146 -4.328911 -5.034346
											CHANNELS 3 Xrotation Yrotation Zrotation
											JOINT L_Finger01
											{
												OFFSET 0.084272 -1.788536 -4.181065
												CHANNELS 3 Xrotation Yrotation Zrotation
												End Site
												{
													OFFSET 3.261885 3.094673 -0.685818
												}
											}
										}
										JOINT L_Finger1
										{
											OFFSET -1.039112 -6.775742 -3.499998
											CHANNELS 3 Xrotation Yrotation Zrotation
											JOINT L_Finger11
											{
												OFFSET 1.320335 -3.040672 -6.425793
												CHANNELS 3 Xrotation Yrotation Zrotation
												End Site
												{
													OFFSET -1.244579 6.832077 -2.013330
												}
											}
										}
										JOINT L_Finger2
										{
											OFFSET 2.531296 -5.656487 -3.286415
											CHANNELS 3 Xrotation Yrotation Zrotation
											JOINT L_Finger21
											{
												OFFSET 1.991665 -2.402016 -5.957748
												CHANNELS 3 Xrotation Yrotation Zrotation
												End Site
												{
													OFFSET -2.793068 5.800873 -1.944178
												}
											}
										}
										JOINT L_Finger3
										{
											OFFSET 5.474075 -3.302338 -2.655975
											CHANNELS 3 Xrotation Yrotation Zrotation
											JOINT L_Finger31
											{
												OFFSET 2.026943 -1.267532 -5.961166
												CHANNELS 3 Xrotation Yrotation Zrotation
												End Site
												{
													OFFSET -4.375172 4.343658 -1.800320
												}
											}
										}
										JOINT L_Finger4
										{
											OFFSET 4.825745 1.085899 -2.321970
											CHANNELS 3 Xrotation Yrotation Zrotation
											JOINT L_Finger41
											{
												OFFSET 3.358261 -1.829651 -3.744434
												CHANNELS 3 Xrotation Yrotation Zrotation
												End Site
												{
													OFFSET -3.843296 2.955200 -2.267633
												}
											}
										}
									}
								}
							}
						}
						JOINT R_Clavicle
						{
							OFFSET -4.567111 -11.666092 -3.750036
							CHANNELS 3 Xrotation Yrotation Zrotation
							JOINT R_UpperArm
							{
								OFFSET -20.725670 -0.000031 0.000038
								CHANNELS 3 Xrotation Yrotation Zrotation
								JOINT R_Forearm
								{
									OFFSET -5.265285 -0.585762 -20.155655
									CHANNELS 3 Xrotation Yrotation Zrotation
									JOINT R_Hand
									{
										OFFSET -2.653147 -10.877739 -16.383663
										CHANNELS 3 Xrotation Yrotation Zrotation
										JOINT R_Finger0
										{
											OFFSET 4.206116 -4.328888 -5.034388
											CHANNELS 3 Xrotation Yrotation Zrotation
											JOINT R_Finger01
											{
												OFFSET -0.084324 -1.788544 -4.181051
												CHANNELS 3 Xrotation Yrotation Zrotation
												End Site
												{
													OFFSET -3.261890 3.094666 -0.685791
												}
											}
										}
										JOINT R_Finger1
										{
											OFFSET 1.039101 -6.775711 -3.499994
											CHANNELS 3 Xrotation Yrotation Zrotation
											JOINT R_Finger11
											{
												OFFSET -1.320374 -3.040672 -6.425779
												CHANNELS 3 Xrotation Yrotation Zrotation
												End Site
												{
													OFFSET 1.244556 6.832077 -2.013342
												}
											}
										}
										JOINT R_Finger2
										{
											OFFSET -2.531307 -5.656464 -3.286409
											CHANNELS 3 Xrotation Yrotation Zrotation
											JOINT R_Finger21
											{
												OFFSET -1.991707 -2.402016 -5.957708
												CHANNELS 3 Xrotation Yrotation Zrotation
												End Site
												{
													OFFSET 2.793037 5.800858 -1.944197
												}
											}
										}
										JOINT R_Finger3
										{
											OFFSET -5.474091 -3.302330 -2.655947
											CHANNELS 3 Xrotation Yrotation Zrotation
											JOINT R_Finger31
											{
												OFFSET -2.026993 -1.267532 -5.961157
												CHANNELS 3 Xrotation Yrotation Zrotation
												End Site
												{
													OFFSET 4.375156 4.343674 -1.800358
												}
											}
										}
										JOINT R_Finger4
										{
											OFFSET -4.825756 1.085922 -2.321926
											CHANNELS 3 Xrotation Yrotation Zrotation
											JOINT R_Finger41
											{
												OFFSET -3.358307 -1.829651 -3.744390
												CHANNELS 3 Xrotation Yrotation Zrotation
												End Site
												{
													OFFSET 3.843273 2.955208 -2.267666
												}
											}
										}
									}
								}
							}
						}
					}
				}
			}
		}
		JOINT Tail01
		{
			OFFSET -0.000010 10.922326 -0.017508
			CHANNELS 3 Xrotation Yrotation Zrotation
			JOINT Tail02
			{
				OFFSET -0.000022 21.986111 0.000013
				CHANNELS 3 Xrotation Yrotation Zrotation
				JOINT Tail03
				{
					OFFSET -0.000022 21.986118 0.000002
					CHANNELS 3 Xrotation Yrotation Zrotation
					JOINT Tail04
					{
						OFFSET -0.000022 21.986122 0.000004
						CHANNELS 3 Xrotation Yrotation Zrotation
						JOINT Tail05
						{
							OFFSET -0.000022 21.986099 0.000010
							CHANNELS 3 Xrotation Yrotation Zrotation
							JOINT Tail06
							{
								OFFSET -0.000022 21.986099 0.000006
								CHANNELS 3 Xrotation Yrotation Zrotation
								JOINT Tail07
								{
									OFFSET -0.000022 21.986099 0.000000
									CHANNELS 3 Xrotation Yrotation Zrotation
									JOINT Tail08
									{
										OFFSET -0.000022 21.984848 0.000050
										CHANNELS 3 Xrotation Yrotation Zrotation
										JOINT Tail09
										{
											OFFSET -0.000025 21.926025 -1.606211
											CHANNELS 3 Xrotation Yrotation Zrotation
											JOINT Tail10
											{
												OFFSET -0.000027 21.750092 -3.203882
												CHANNELS 3 Xrotation Yrotation Zrotation
												End Site
												{
													OFFSET -0.000036 4.767395 21.461668
												}
											}
										}
									}
								}
							}
						}
					}
				}
			}
		}
		JOINT L_Thigh
		{
			OFFSET 24.788780 0.000021 -0.000034
			CHANNELS 3 Xrotation Yrotation Zrotation
			JOINT L_Calf
			{
				OFFSET 4.720837 4.161326 -21.049969
				CHANNELS 3 Xrotation Yrotation Zrotation
				JOINT L_Foot
				{
					OFFSET 2.154160 21.114433 -11.949743
					CHANNELS 3 Xrotation Yrotation Zrotation
					JOINT L_Toe0
					{
						OFFSET 4.557564 9.251841 -8.735286
						CHANNELS 3 Xrotation Yrotation Zrotation
						End Site
						{
							OFFSET 4.555542 -12.646044 1.018752
						}
					}
					JOINT L_Toe1
					{
						OFFSET 2.346291 5.845602 -11.687160
						CHANNELS 3 Xrotation Yrotation Zrotation
						End Site
						{
							OFFSET 5.347954 -12.298279 1.365644
						}
					}
					JOINT L_Toe2
					{
						OFFSET -0.356020 3.902458 -12.541145
						CHANNELS 3 Xrotation Yrotation Zrotation
						End Site
						{
							OFFSET 3.916235 -12.806129 1.542549
						}
					}
					JOINT L_Toe3
					{
						OFFSET -4.603447 3.183935 -12.435249
						CHANNELS 3 Xrotation Yrotation Zrotation
						End Site
						{
							OFFSET 3.810858 -12.587427 2.957583
						}
					}
					JOINT L_Toe4
					{
						OFFSET -7.144358 6.231495 -10.072764
						CHANNELS 3 Xrotation Yrotation Zrotation
						End Site
						{
							OFFSET 3.810858 -12.587425 2.957585
						}
					}
				}
			}
		}
		JOINT R_Thigh
		{
			OFFSET -24.788780 -0.000024 0.000034
			CHANNELS 3 Xrotation Yrotation Zrotation
			JOINT R_Calf
			{
				OFFSET -4.720922 4.161324 -21.049952
				CHANNELS 3 Xrotation Yrotation Zrotation
				JOINT R_Foot
				{
					OFFSET -2.154238 21.114414 -11.949730
					CHANNELS 3 Xrotation Yrotation Zrotation
					JOINT R_Toe0
					{
						OFFSET -4.557598 9.251823 -8.735270
						CHANNELS 3 Xrotation Yrotation Zrotation
						End Site
						{
							OFFSET -4.555508 -12.646051 1.018756
						}
					}
					JOINT R_Toe1
					{
						OFFSET -2.346325 5.845589 -11.687157
						CHANNELS 3 Xrotation Yrotation Zrotation
						End Site
						{
							OFFSET -5.347919 -12.298286 1.365654
						}
					}
					JOINT R_Toe2
					{
						OFFSET 0.355980 3.902462 -12.541145
						CHANNELS 3 Xrotation Yrotation Zrotation
						End Site
						{
							OFFSET -3.916199 -12.806131 1.542559
						}
					}
					JOINT R_Toe3
					{
						OFFSET 4.603411 3.183941 -12.435266
						CHANNELS 3 Xrotation Yrotation Zrotation
						End Site
						{
							OFFSET -3.810825 -12.587429 2.957591
						}
					}
					JOINT R_Toe4
					{
						OFFSET 7.144323 6.231503 -10.072779
						CHANNELS 3 Xrotation Yrotation Zrotation
						End Site
						{
							OFFSET -3.810825 -12.587433 2.957584
						}
					}
				}
			}
		}
	}
}
MOTION
Frames: 5
Frame Time: 0.033333
-0.000000 0.000000 50.003502 0.000000 -0.000000 0.000044 -12.429394 -0.000126 -0.000006 10.841056 0.000006 0.000018 4.905793 -0.000003 -0.000003 7.664108 -0.000004 -0.000001 -2.163955 0.000002 -0.000003 -7.805819 0.000003 -0.000005 -13.013543 0.000008 -0.000015 10.671446 -0.000013 -0.000001 -10.898664 -0.000054 0.000047 0.000009 0.000000 -0.000000 0.000021 0.000000 -0.000000 -0.000005 0.000007 -0.000015 1.670335 1.204640 -17.007335 0.000001 -0.000003 -0.000003 0.000003 -0.000004 0.000010 0.000007 0.000000 0.000010 1.670560 -1.204895 17.007651 0.000001 -0.000004 0.000000 -0.000004 0.000006 -0.000001 -0.000001 -0.000000 -0.000000 -0.001033 -0.897670 11.904297 23.380364 -7.530060 -32.464343 -19.715303 3.945417 -4.646154 -66.338752 -12.886108 -14.594904 4.814245 45.237883 32.496817 0.108394 -0.103826 0.046712 31.239882 13.715132 -10.715213 -21.103476 -3.971327 -2.962969 30.256515 6.344417 -6.448661 -32.343282 -14.390353 -8.157528 20.872343 -11.244813 -8.185806 -18.722431 -18.085393 -5.094119 18.635514 -29.682653 -0.393831 0.555240 0.804608 0.101803 -0.001051 0.897358 -11.904319 -1.028606 7.140862 34.191831 -8.523498 -1.501196 2.164932 -55.828334 4.996557 0.696962 4.813893 -45.237818 -32.497128 0.108387 0.103819 -0.046707 31.239933 -13.715165 10.714984 -21.103473 3.971276 2.963141 30.256580 -6.344449 6.448433 -32.343295 14.390251 8.157739 20.872418 11.244829 8.185617 -18.722465 18.085328 5.094262 18.635560 29.682657 0.393674 0.555238 -0.804615 -0.101800 -9.946328 0.000003 0.000032 -7.324265 -1.231628 3.950024 4.440073 -0.236521 4.130697 11.135643 -0.637663 -5.348725 6.971934 -0.180408 -5.341277 2.456926 -0.222419 -9.484035 1.582896 -0.522799 -9.446336 2.604749 -0.729180 7.207827 1.856011 0.225903 7.086755 2.504827 0.702950 7.052489 -30.527568 -12.699333 8.607192 1.876408 0.059673 0.430337 -33.034377 -19.053202 -9.191105 -2.318600 -4.298940 -0.446776 8.087297 0.872403 0.413572 17.133828 6.636281 3.687459 20.253536 6.370519 -9.434378 -1.696109 7.323591 -8.103839 -14.058284 9.382726 -15.673387 1.177616 -0.035800 -0.270297 -49.664863 16.447099 11.972927 -2.318613 4.298936 0.446771 8.087299 -0.872372 -0.413609 17.133840 -6.636252 -3.687515 20.253553 -6.370481 9.434311 -1.696089 -7.323600 8.103842 
-0.000000 0.000000 50.005501 0.000000 -0.000000 0.000044 -12.426330 -0.000126 0.000007 10.841457 0.000006 0.000018 4.903416 -0.000003 -0.000003 7.661729 -0.000004 -0.000001 -2.163954 0.000002 -0.000003 -7.815901 0.000003 -0.000005 -13.013543 0.000008 -0.000015 10.682819 -0.000013 -0.000001 -10.910455 -0.000054 0.000047 0.000010 0.000000 -0.000000 0.000021 0.000000 -0.000000 -0.000005 0.000007 -0.000015 1.670335 1.204639 -17.007337 0.000000 -0.000002 -0.000000 0.000003 -0.000004 0.000011 0.000007 -0.000000 0.000010 1.670560 -1.204895 17.007651 0.000001 -0.000001 0.000002 -0.000002 0.000006 0.000001 -0.000000 -0.000000 -0.000000 -0.001049 -0.894690 11.903429 23.380870 -7.534809 -32.463356 -19.718466 3.946173 -4.646786 -66.338848 -12.886127 -14.594963 4.814243 45.237880 32.496817 0.108390 -0.103825 0.046718 31.239878 13.715131 -10.715214 -21.103485 -3.971323 -2.962970 30.256515 6.344418 -6.448660 -32.343288 -14.390355 -8.157532 20.872334 -11.244814 -8.185806 -18.722431 -18.085395 -5.094121 18.635509 -29.682650 -0.393834 0.555238 0.804608 0.101804 -0.001075 0.894377 -11.903410 -1.026898 7.145692 34.190971 -8.527051 -1.501893 2.165790 -55.825981 4.997196 0.697039 4.813899 -45.237815 -32.497125 0.108388 0.103818 -0.046713 31.239933 -13.715163 10.714984 -21.103469 3.971278 2.963138 30.256573 -6.344450 6.448429 -32.343292 14.390251 8.157733 20.872414 11.244830 8.185618 -18.722471 18.085333 5.094265 18.635546 29.682660 0.393674 0.555237 -0.804614 -0.101801 -9.948785 0.000003 0.000032 -7.325859 -1.231628 3.950025 4.438872 -0.236333 4.130696 11.134480 -0.637245 -5.348722 6.973218 -0.180549 -5.341276 2.457980 -0.222407 -9.484037 1.583974 -0.522349 -9.446341 2.605706 -0.728560 7.207742 1.857011 0.226404 7.086618 2.504828 0.702950 7.052490 -30.525137 -12.698122 8.609873 1.868925 0.059410 0.428622 -33.002060 -19.056462 -9.184253 -2.318599 -4.298940 -0.446777 8.087299 0.872403 0.413574 17.133830 6.636284 3.687455 20.253539 6.370517 -9.434378 -1.696110 7.323590 -8.103840 -14.057194 9.381223 -15.675667 1.170439 -0.035564 -0.268648 -49.661523 16.447620 11.973031 -2.318616 4.298928 0.446771 8.087297 -0.872377 -0.413609 17.133839 -6.636254 -3.687511 20.253551 -6.370488 9.434316 -1.696091 -7.323604 8.103846 
-0.000000 -0.000000 50.009586 0.000000 -0.000000 0.000044 -12.419486 -0.000123 0.000014 10.841989 0.000006 0.000018 4.898098 -0.000003 -0.000003 7.656413 -0.000004 -0.000001 -2.163956 0.000002 -0.000003 -7.826034 0.000003 -0.000005 -13.013542 0.000008 -0.000015 10.701607 -0.000013 -0.000001 -10.922168 -0.000054 0.000047 0.000009 0.000000 -0.000000 0.000021 0.000000 -0.000000 -0.000004 0.000007 -0.000018 1.670333 1.204636 -17.007347 0.000001 -0.000003 -0.000005 0.000003 -0.000005 0.000008 0.000007 0.000000 0.000007 1.670559 -1.204894 17.007649 0.000000 -0.000004 0.000000 -0.000003 0.000006 0.000001 -0.000000 -0.000000 -0.000000 -0.001065 -0.886290 11.902554 23.384076 -7.545915 -32.459405 -19.725557 3.947876 -4.648208 -66.336990 -12.886767 -14.595127 4.814248 45.237880 32.496817 0.108396 -0.103824 0.046711 31.239882 13.715136 -10.715219 -21.103488 -3.971329 -2.962972 30.256519 6.344417 -6.448665 -32.343285 -14.390353 -8.157531 20.872338 -11.244816 -8.185807 -18.722430 -18.085390 -5.094121 18.635514 -29.682657 -0.393831 0.555235 0.804610 0.101800 -0.001085 0.885979 -11.902579 -1.023008 7.157902 34.189431 -8.535683 -1.503579 2.167876 -55.821043 4.998469 0.696835 4.813901 -45.237818 -32.497128 0.108388 0.103819 -0.046709 31.239936 -13.715166 10.714982 -21.103475 3.971281 2.963135 30.256573 -6.344447 6.448433 -32.343295 14.390251 8.157739 20.872421 11.244830 8.185620 -18.722464 18.085330 5.094268 18.635553 29.682663 0.393675 0.555237 -0.804609 -0.101797 -9.954268 0.000003 0.000032 -7.328866 -1.231628 3.950025 4.436768 -0.236108 4.130697 11.132423 -0.636727 -5.348722 6.975652 -0.180720 -5.341276 2.459729 -0.222380 -9.484037 1.585729 -0.521782 -9.446339 2.607317 -0.727709 7.207635 1.858690 0.227049 7.086477 2.504828 0.702950 7.052491 -30.520297 -12.695519 8.615745 1.849923 0.058733 0.424276 -33.013900 -19.055707 -9.186907 -2.318599 -4.298947 -0.446778 8.087296 0.872399 0.413572 17.133828 6.636285 3.687455 20.253534 6.370517 -9.434380 -1.696111 7.323591 -8.103841 -14.054676 9.377719 -15.680400 1.151679 -0.034947 -0.264349 -49.652378 16.449093 11.972719 -2.318614 4.298933 0.446772 8.087296 -0.872376 -0.413608 17.133839 -6.636250 -3.687510 20.253551 -6.370482 9.434316 -1.696086 -7.323600 8.103844 
-0.000000 0.000000 50.015697 0.000000 -0.000000 0.000044 -12.408932 -0.000126 0.000028 10.842603 0.000006 0.000018 4.889916 -0.000003 -0.000003 7.648232 -0.000004 -0.000001 -2.163955 0.000002 -0.000003 -7.836162 0.000003 -0.000005 -13.013543 0.000008 -0.000015 10.727453 -0.000013 -0.000001 -10.933842 -0.000054 0.000047 0.000011 0.000000 -0.000000 0.000021 -0.000000 -0.000000 -0.000005 0.000007 -0.000017 1.670331 1.204634 -17.007343 0.000001 -0.000003 -0.000001 0.000003 -0.000007 0.000012 0.000007 0.000000 0.000009 1.670560 -1.204894 17.007649 0.000001 -0.000002 -0.000001 0.000000 0.000006 -0.000000 -0.000000 -0.000000 -0.000000 -0.001093 -0.872621 11.901830 23.390044 -7.563213 -32.452565 -19.736457 3.950494 -4.650395 -66.333192 -12.888029 -14.595394 4.814243 45.237883 32.496821 0.108395 -0.103827 0.046716 31.239885 13.715133 -10.715215 -21.103486 -3.971326 -2.962973 30.256522 6.344418 -6.448659 -32.343278 -14.390353 -8.157531 20.872339 -11.244811 -8.185808 -18.722435 -18.085393 -5.094118 18.635510 -29.682653 -0.393834 0.555235 0.804608 0.101804 -0.001128 0.872307 -11.901825 -1.016972 7.177338 34.187228 -8.549296 -1.506236 2.171158 -55.813540 5.000335 0.696387 4.813894 -45.237822 -32.497125 0.108389 0.103818 -0.046711 31.239933 -13.715167 10.714982 -21.103473 3.971279 2.963141 30.256577 -6.344449 6.448432 -32.343299 14.390254 8.157739 20.872416 11.244828 8.185619 -18.722467 18.085330 5.094268 18.635553 29.682660 0.393680 0.555234 -0.804614 -0.101798 -9.962708 0.000003 0.000032 -7.333240 -1.231628 3.950032 4.433791 -0.235846 4.130700 11.129484 -0.636113 -5.348714 6.979202 -0.180922 -5.341276 2.462157 -0.222338 -9.484039 1.588146 -0.521100 -9.446342 2.609562 -0.726632 7.207520 1.861030 0.227834 7.086321 2.504828 0.702950 7.052489 -30.513050 -12.691508 8.624745 1.819658 0.057660 0.417351 -32.979497 -19.059505 -9.180497 -2.318598 -4.298944 -0.446776 8.087297 0.872402 0.413575 17.133832 6.636283 3.687459 20.253538 6.370514 -9.434376 -1.696108 7.323588 -8.103839 -14.050747 9.372318 -15.687572 1.121569 -0.033969 -0.257447 -49.637474 16.451508 11.971974 -2.318614 4.298940 0.446771 8.087294 -0.872374 -0.413611 17.133840 -6.636250 -3.687515 20.253550 -6.370482 9.434314 -1.696090 -7.323599 8.103844 
-0.000000 -0.000000 50.023788 0.000000 -0.000000 0.000044 -12.394851 -0.000123 -0.000006 10.843295 0.000006 0.000018 4.878948 -0.000003 -0.000003 7.637264 -0.000004 -0.000001 -2.163955 0.000002 -0.000003 -7.846223 0.000003 -0.000005 -13.013542 0.000008 -0.000015 10.759979 -0.000013 -0.000001 -10.945482 -0.000054 0.000047 0.000009 -0.000000 -0.000000 0.000021 0.000000 -0.000000 -0.000005 0.000007 -0.000018 1.670330 1.204631 -17.007342 0.000000 -0.000003 0.000000 0.000003 -0.000004 0.000013 0.000008 0.000000 0.000007 1.670560 -1.204895 17.007653 0.000000 -0.000001 0.000002 -0.000002 0.000008 0.000000 -0.000000 0.000000 -0.000000 -0.001112 -0.853818 11.901197 23.398790 -7.586560 -32.442842 -19.751075 3.954009 -4.653323 -66.327400 -12.889930 -14.595759 4.814248 45.237880 32.496828 0.108392 -0.103824 0.046719 31.239882 13.715133 -10.715214 -21.103481 -3.971327 -2.962970 30.256522 6.344416 -6.448663 -32.343285 -14.390351 -8.157528 20.872343 -11.244812 -8.185804 -18.722433 -18.085392 -5.094120 18.635515 -29.682650 -0.393831 0.555240 0.804606 0.101803 -0.001147 0.853506 -11.901203 -1.008805 7.203770 34.184332 -8.567710 -1.509838 2.175601 -55.803581 5.002787 0.695680 4.813897 -45.237818 -32.497118 0.108392 0.103825 -0.046711 31.239933 -13.715164 10.714983 -21.103473 3.971280 2.963137 30.256577 -6.344450 6.448434 -32.343295 14.390251 8.157740 20.872421 11.244831 8.185621 -18.722464 18.085328 5.094267 18.635555 29.682660 0.393679 0.555236 -0.804619 -0.101799 -9.974030 0.000003 0.000032 -7.338959 -1.231628 3.950032 4.429957 -0.235546 4.130699 11.125690 -0.635403 -5.348720 6.983840 -0.181154 -5.341276 2.465244 -0.222281 -9.484036 1.591207 -0.520307 -9.446332 2.612428 -0.725335 7.207401 1.864015 0.228755 7.086163 2.504826 0.702949 7.052489 -30.503417 -12.686142 8.636798 1.778367 0.056202 0.407902 -32.989646 -19.059243 -9.183706 -2.318600 -4.298937 -0.446779 8.087297 0.872405 0.413572 17.133827 6.636282 3.687456 20.253539 6.370517 -9.434379 -1.696108 7.323589 -8.103840 -14.045407 9.364976 -15.697125 1.080341 -0.032631 -0.247994 -49.616922 16.454856 11.970800 -2.318616 4.298933 0.446773 8.087296 -0.872376 -0.413608 17.133837 -6.636252 -3.687514 20.253548 -6.370485 9.434315 -1.696089 -7.323599 8.103844 
